<?xml version="1.0" standalone="no"?>
<!DOCTYPE svg PUBLIC "-//W3C//DTD SVG 20010904//EN"
 "http://www.w3.org/TR/2001/REC-SVG-20010904/DTD/svg10.dtd">
<svg version="1.0" xmlns="http://www.w3.org/2000/svg"
 width="485.000000pt" height="485.000000pt" viewBox="0 0 485.000000 485.000000"
 preserveAspectRatio="xMidYMid meet">
<metadata>
Created by potrace 1.11, written by Peter Selinger 2001-2013
</metadata>
<g transform="translate(0.000000,485.000000) scale(0.100000,-0.100000)"
fill="#000000" stroke="none">
<path d="M2423 4660 c-30 -47 -141 -159 -228 -229 -261 -211 -591 -363 -886
-410 -183 -29 -211 -32 -399 -36 l-175 -3 1 -1004 c0 -552 3 -1025 7 -1053 14
-97 19 -121 48 -210 47 -149 137 -308 258 -455 87 -106 332 -340 435 -415 22
-16 43 -32 46 -35 19 -21 501 -330 516 -330 3 0 25 -13 49 -30 24 -16 46 -30
48 -30 3 0 58 -31 123 -68 191 -110 187 -109 244 -72 26 17 171 100 175 100
14 0 463 277 597 367 183 125 458 372 564 508 21 28 42 52 45 55 3 3 26 34 50
70 115 166 191 354 215 530 8 61 12 2070 4 2070 -3 1 -79 2 -170 4 -140 3
-273 14 -367 31 -185 32 -349 83 -501 155 -92 44 -269 144 -282 160 -3 3 -16
13 -30 22 -89 56 -261 213 -320 292 -19 25 -38 46 -42 46 -3 0 -14 -13 -25
-30z"/>
</g>
</svg>
